# xmcd
#
# Track frame offsets:
#	150
#	10280
#	20885
#	31880
#	41907
#	53780
#	64885
#	77245
#	90425
#	99607
#	110535
#	121572
#	133807
#	146377
#	159737
#	169475
#	179647
#	193592
#	205167
#	218972
#	228897
#	238597
#	248915
#	262575
#
# Disc length: 3643
#
# Revision: 1
# Processed by: cddbd v1.5.1PL0 Copyright (c) Steve Scherf et al.
# Submitted via: dBpowerAMP V4.0
# Normalized: r0:TDELIM( - )
#
DISCID=530e3918
DTITLE=Various Artist - Okeh - A Northern Soul Obsession Volume 2
DYEAR=1900
DGENRE=soul
TTITLE0=Larry Williams and Johnny Watson - Ain't Gonna Move
TTITLE1=Vibrations - End Up Crying
TTITLE2=Billy Butler and The Chanters - I Can Work No Longer
TTITLE3=Artistics - I'll Leave It Up To You
TTITLE4=Tan Geers - Let My Heart And Soul Be Free
TTITLE5=Triumphs - Memories
TTITLE6=Cookie Jackson - Your Good Girl's Gonna Go Bad
TTITLE7=Larry Williams - You Ask For One Good Reason
TTITLE8=Gerald Sims - Cool Breze
TTITLE9=Majore Lance - Rhythm
TTITLE10=Opals - You're Gonna Be Sorry
TTITLE11=Marlina Mars - Just Another Dance
TTITLE12=Walter Jackson - After You There Can Be Nothing
TTITLE13=Malcom Hayes - I Can't Make It Without You
TTITLE14=Johnny Watson - South Like West (Inst.)
TTITLE15=Fundamentals - Let Me Show It To You
TTITLE16=Variations - Yesterday Is Gone
TTITLE17=Azie Mortimer - You Can't Take It Away
TTITLE18=Little Richard - A Little Bit Of Something (Beats A Whole Lot Of Nothing)
TTITLE19=Jean Dushon - Second Class Lover
TTITLE20=Beligianettes - The Train
TTITLE21=Billy Butler and The Chanters - Can't Live Woithout Her
TTITLE22=Joyce Davis - Hello Heartaches, Goodbye Love
TTITLE23=Walter Jackson - That's What Mama Say
EXTD=tim1701
EXTT0=
EXTT1=
EXTT2=
EXTT3=
EXTT4=
EXTT5=
EXTT6=
EXTT7=
EXTT8=
EXTT9=
EXTT10=
EXTT11=
EXTT12=
EXTT13=
EXTT14=
EXTT15=
EXTT16=
EXTT17=
EXTT18=
EXTT19=
EXTT20=
EXTT21=
EXTT22=
EXTT23=
PLAYORDER=
